<mxfile host="app.diagrams.net" modified="2020-11-29T16:48:59.319Z" agent="5.0 (X11; Linux x86_64) AppleWebKit/537.36 (KHTML, like Gecko) Chrome/86.0.4240.111 Safari/537.36" etag="la51CJIxucMopzYW82po" version="13.10.4" type="github">
  <diagram id="zsasw6si1hnA-dcXNO2p" name="Page-1">
    <mxGraphModel dx="990" dy="610" grid="1" gridSize="10" guides="1" tooltips="1" connect="1" arrows="1" fold="1" page="1" pageScale="1" pageWidth="827" pageHeight="1169" math="0" shadow="0">
      <root>
        <mxCell id="0" />
        <mxCell id="1" parent="0" />
        <mxCell id="ozXyOQtT3zi1J_VsEqZR-3" value="&lt;p&gt;&lt;font style=&quot;font-size: 12px&quot;&gt;&lt;b&gt;VIM SPLITS&lt;/b&gt;&lt;/font&gt;&lt;/p&gt;&lt;p&gt;&lt;b&gt;:vsp 1.txt&lt;/b&gt;&lt;span style=&quot;font-weight: normal ; letter-spacing: -0.3px&quot;&gt; &quot;Vertical splitting&lt;br&gt;&lt;/span&gt;&lt;b&gt;:sp 1.txt&lt;/b&gt;&lt;span style=&quot;letter-spacing: -0.3px ; font-weight: normal&quot;&gt; &quot;Horizontal splitting&lt;br&gt;&lt;/span&gt;&lt;b&gt;C-w {hjkl}&lt;/b&gt;&lt;span style=&quot;font-weight: 400 ; letter-spacing: -0.3px&quot;&gt; &quot;Navigation&lt;br&gt;&lt;/span&gt;&lt;b&gt;C-&lt;span class=&quot;p&quot; style=&quot;letter-spacing: -0.3px ; box-sizing: inherit&quot;&gt;w&lt;/span&gt;&lt;span style=&quot;letter-spacing: -0.3px&quot;&gt; _&lt;/span&gt;&lt;/b&gt;&lt;span style=&quot;letter-spacing: -0.3px&quot;&gt; &lt;/span&gt;&lt;span style=&quot;letter-spacing: -0.3px ; font-weight: 400&quot;&gt;&quot;&lt;/span&gt;&lt;i&gt;&lt;span style=&quot;font-weight: 400 ; letter-spacing: -0.3px&quot;&gt;Max out the height of the current split&lt;br&gt;&lt;/span&gt;&lt;/i&gt;&lt;b&gt;C-&lt;span class=&quot;p&quot; style=&quot;letter-spacing: -0.3px ; box-sizing: inherit&quot;&gt;w&lt;/span&gt;&lt;span style=&quot;letter-spacing: -0.3px&quot;&gt; &lt;/span&gt;&lt;span class=&quot;p&quot; style=&quot;letter-spacing: -0.3px ; box-sizing: inherit&quot;&gt;|&lt;/span&gt;&lt;/b&gt;&lt;span class=&quot;p&quot; style=&quot;letter-spacing: -0.3px ; font-weight: normal ; box-sizing: inherit&quot;&gt; &lt;/span&gt;&lt;span style=&quot;letter-spacing: -0.3px ; font-weight: 400&quot;&gt;&lt;i&gt;&quot;Max out the width of the current split&lt;br&gt;&lt;/i&gt;&lt;/span&gt;&lt;font style=&quot;letter-spacing: -0.3px ; font-size: 12px&quot;&gt;&lt;b&gt;C-&lt;span class=&quot;p&quot; style=&quot;box-sizing: inherit&quot;&gt;w&lt;/span&gt; &lt;span class=&quot;p&quot; style=&quot;box-sizing: inherit&quot;&gt;=&lt;/span&gt;&lt;/b&gt;&lt;span class=&quot;p&quot; style=&quot;box-sizing: inherit&quot;&gt; &lt;/span&gt;&lt;/font&gt;&lt;span style=&quot;letter-spacing: -0.3px&quot;&gt;&lt;span style=&quot;font-weight: normal&quot;&gt;&quot;Normalize all split sizes, which is very handy when resizing terminal&lt;/span&gt;&lt;span style=&quot;font-weight: 400&quot;&gt;&lt;br&gt;&lt;/span&gt;&lt;/span&gt;&lt;font style=&quot;letter-spacing: -0.3px ; font-weight: normal ; font-size: 12px&quot;&gt;&lt;b&gt;C-&lt;/b&gt;&lt;span class=&quot;p&quot; style=&quot;box-sizing: inherit&quot;&gt;&lt;b&gt;w&lt;/b&gt;&lt;/span&gt;&lt;b&gt; r &quot;&lt;/b&gt;&lt;/font&gt;&lt;span style=&quot;font-weight: normal ; letter-spacing: -0.3px&quot;&gt;Swap top/bottom or left/right split&lt;br&gt;&lt;/span&gt;&lt;b&gt;Tab&lt;/b&gt;&lt;span style=&quot;letter-spacing: -0.3px ; font-weight: normal&quot;&gt;&amp;nbsp;&quot;Next window&lt;/span&gt;&lt;/p&gt;" style="text;html=1;spacing=5;padding=5;whiteSpace=wrap;overflow=hidden;rounded=0;fontFamily=monospace;labelBackgroundColor=#ffffff;labelBorderColor=#000000;" parent="1" vertex="1">
          <mxGeometry x="10" y="10" width="630" height="190" as="geometry" />
        </mxCell>
        <mxCell id="r09ggtFG_92BmXEbbVM_-1" style="edgeStyle=orthogonalEdgeStyle;rounded=0;orthogonalLoop=1;jettySize=auto;html=1;exitX=0.5;exitY=1;exitDx=0;exitDy=0;" parent="1" source="ozXyOQtT3zi1J_VsEqZR-3" target="ozXyOQtT3zi1J_VsEqZR-3" edge="1">
          <mxGeometry relative="1" as="geometry" />
        </mxCell>
        <mxCell id="r09ggtFG_92BmXEbbVM_-2" value="&lt;p style=&quot;line-height: 80%&quot;&gt;&lt;/p&gt;&lt;p style=&quot;font-size: 13px&quot;&gt;&lt;font style=&quot;font-size: 13px&quot;&gt;&lt;b&gt;VIM&lt;/b&gt;&lt;/font&gt;&lt;/p&gt;&lt;p style=&quot;font-size: 13px&quot;&gt;&lt;font style=&quot;font-size: 13px&quot;&gt;&lt;b&gt;:noh, &amp;lt;Space&amp;gt; &lt;/b&gt;&lt;/font&gt;&lt;font style=&quot;font-size: 13px ; font-weight: normal&quot;&gt;&quot;Disable selection&lt;br&gt;&lt;/font&gt;&lt;font style=&quot;font-size: 13px&quot;&gt;&lt;b&gt;&amp;lt;C-6&amp;gt;, &amp;lt;C-^&amp;gt; &lt;/b&gt;&lt;/font&gt;&lt;font style=&quot;font-size: 13px ; font-weight: normal&quot;&gt;&quot;Switch KB layout&lt;br&gt;&lt;/font&gt;&lt;font style=&quot;font-size: 13px&quot;&gt;&lt;b&gt;:Autoread &lt;/b&gt;&lt;/font&gt;&lt;font style=&quot;font-size: 13px ; font-weight: normal&quot;&gt;&quot;Sync external changes from disk&lt;/font&gt;&lt;font style=&quot;font-size: 13px ; font-weight: normal&quot;&gt;&lt;br&gt;&lt;/font&gt;&lt;font style=&quot;font-size: 13px&quot;&gt;&lt;b&gt;:bc, :Bclose &lt;/b&gt;&lt;/font&gt;&lt;font style=&quot;font-size: 13px ; font-weight: normal&quot;&gt;&quot;Close buffer&lt;br&gt;&lt;/font&gt;&lt;font style=&quot;font-size: 13px&quot;&gt;&lt;b&gt;&amp;lt;C-o&amp;gt;/&amp;lt;C-n&amp;gt; &lt;/b&gt;&lt;/font&gt;&lt;font style=&quot;font-size: 13px ; font-weight: normal&quot;&gt;&quot;Prev/Next cursor position&lt;/font&gt;&lt;font style=&quot;font-size: 13px ; font-weight: normal&quot;&gt;&lt;br&gt;&lt;/font&gt;&lt;font style=&quot;font-size: 13px&quot;&gt;&lt;b&gt;&amp;lt;C-c&amp;gt; &lt;/b&gt;&lt;/font&gt;&lt;font style=&quot;font-size: 13px ; font-weight: normal&quot;&gt;&quot;Show diff of the code line&lt;br&gt;&lt;/font&gt;&lt;font style=&quot;font-size: 13px&quot;&gt;&lt;b&gt;&amp;lt;C-x&amp;gt; &lt;/b&gt;&lt;/font&gt;&lt;font style=&quot;font-size: 13px ; font-weight: normal&quot;&gt;&quot;Undo changes of the code line&lt;/font&gt;&lt;font style=&quot;font-size: 13px ; font-weight: normal&quot;&gt;&lt;br&gt;&lt;/font&gt;&lt;font style=&quot;font-size: 13px&quot;&gt;&lt;b&gt;gd &lt;/b&gt;&lt;/font&gt;&lt;font style=&quot;font-size: 13px ; font-weight: normal&quot;&gt;&quot;Highlight word in the file and search this word using &quot;n&quot;&lt;br&gt;&lt;/font&gt;&lt;font style=&quot;font-size: 13px&quot;&gt;&lt;b&gt;gf &lt;/b&gt;&lt;/font&gt;&lt;font style=&quot;font-size: 13px ; font-weight: normal&quot;&gt;&quot;Go to file or directory by path under cursor&lt;/font&gt;&lt;font style=&quot;font-size: 13px ; font-weight: normal&quot;&gt;&lt;br&gt;&lt;/font&gt;&lt;font style=&quot;font-size: 13px&quot;&gt;&lt;b&gt;&amp;lt;C-g&amp;gt; &lt;/b&gt;&lt;/font&gt;&lt;font style=&quot;font-size: 13px ; font-weight: normal&quot;&gt;&quot;Display file path&lt;/font&gt;&lt;font style=&quot;font-size: 13px ; font-weight: normal&quot;&gt;&lt;br&gt;&lt;/font&gt;&lt;font style=&quot;font-size: 13px&quot;&gt;&lt;b&gt;&amp;lt;C-p&amp;gt;/&amp;lt;C-n&amp;gt; &lt;/b&gt;&lt;/font&gt;&lt;font style=&quot;font-size: 13px ; font-weight: normal&quot;&gt;&quot;Prev/Next buffer&lt;br&gt;&lt;/font&gt;&lt;font style=&quot;font-size: 13px&quot;&gt;&lt;b&gt;&amp;lt;C-e&amp;gt; &lt;/b&gt;&lt;/font&gt;&lt;font style=&quot;font-size: 13px ; font-weight: normal&quot;&gt;&quot;Last edited buffer&lt;br&gt;&lt;/font&gt;&lt;font style=&quot;font-size: 13px&quot;&gt;&lt;b&gt;zo &lt;/b&gt;&lt;/font&gt;&lt;font style=&quot;font-size: 13px ; font-weight: normal&quot;&gt;&quot;Open fold block&lt;br&gt;&lt;/font&gt;&lt;font style=&quot;font-size: 13px&quot;&gt;&lt;b&gt;zc &lt;/b&gt;&lt;/font&gt;&lt;font style=&quot;font-size: 13px ; font-weight: normal&quot;&gt;&quot;Close fold block&lt;br&gt;&lt;/font&gt;&lt;font style=&quot;font-size: 13px&quot;&gt;&lt;b&gt;z= &lt;/b&gt;&lt;/font&gt;&lt;font style=&quot;font-size: 13px ; font-weight: normal&quot;&gt;&quot;(spell) select fix variants&lt;br&gt;&lt;/font&gt;&lt;font style=&quot;font-size: 13px&quot;&gt;&lt;b&gt;zg &lt;/b&gt;&lt;/font&gt;&lt;font style=&quot;font-size: 13px ; font-weight: normal&quot;&gt;&quot;(spell) add word into dictionary&lt;br&gt;&lt;/font&gt;&lt;font style=&quot;font-size: 13px&quot;&gt;&lt;b&gt;zug &lt;/b&gt;&lt;/font&gt;&lt;font style=&quot;font-size: 13px ; font-weight: normal&quot;&gt;&quot;(spell) remove word from dictionary&lt;br&gt;&lt;/font&gt;&lt;font style=&quot;font-size: 13px&quot;&gt;&lt;b&gt;&amp;lt;C-b&amp;gt; &lt;/b&gt;&lt;/font&gt;&lt;font style=&quot;font-size: 13px ; font-weight: normal&quot;&gt;&quot;Display buffer list and select one of them&lt;/font&gt;&lt;/p&gt;&lt;p&gt;&lt;/p&gt;" style="text;html=1;spacing=5;padding=5;whiteSpace=wrap;overflow=hidden;rounded=0;fontFamily=monospace;labelBackgroundColor=#ffffff;labelBorderColor=#000000;" parent="1" vertex="1">
          <mxGeometry x="10" y="300" width="580" height="350" as="geometry" />
        </mxCell>
        <mxCell id="r09ggtFG_92BmXEbbVM_-3" value="&lt;h1&gt;&lt;p style=&quot;font-size: 12px&quot;&gt;&lt;b&gt;VIM ALE&lt;br&gt;&lt;/b&gt;:lopen&lt;span style=&quot;font-weight: normal&quot;&gt;&amp;nbsp;&quot;List of errors and warnings&lt;/span&gt;&lt;/p&gt;&lt;/h1&gt;" style="text;html=1;spacing=5;padding=5;whiteSpace=wrap;overflow=hidden;rounded=0;fontFamily=monospace;labelBackgroundColor=#ffffff;labelBorderColor=#000000;" parent="1" vertex="1">
          <mxGeometry x="10" y="190" width="630" height="80" as="geometry" />
        </mxCell>
        <mxCell id="r09ggtFG_92BmXEbbVM_-4" value="&lt;h1 style=&quot;font-size: 14px&quot;&gt;&lt;div style=&quot;font-size: 12px&quot;&gt;VIM NERDTree&lt;/div&gt;&lt;/h1&gt;&lt;h1 style=&quot;font-size: 14px&quot;&gt;&lt;div style=&quot;font-size: 12px&quot;&gt;&amp;lt;C-t&amp;gt;&lt;span style=&quot;font-weight: normal&quot;&gt; &quot;Toggle NERDTree&lt;/span&gt;&lt;br&gt;o &lt;span style=&quot;font-weight: normal&quot;&gt;&quot;open in prev window&lt;/span&gt;&lt;/div&gt;&lt;div style=&quot;font-size: 12px&quot;&gt;i &lt;span style=&quot;font-weight: normal&quot;&gt;&quot;split&lt;/span&gt;&lt;/div&gt;&lt;div style=&quot;font-size: 12px&quot;&gt;s &lt;span style=&quot;font-weight: normal&quot;&gt;&quot;vsplit&lt;/span&gt;&lt;/div&gt;&lt;div style=&quot;font-size: 12px&quot;&gt;g{o,i,s}&lt;span style=&quot;font-weight: normal&quot;&gt;&amp;nbsp;&quot;open,split,vsplit and stay cursor in NERDTree&lt;/span&gt;&lt;/div&gt;&lt;div style=&quot;font-size: 12px&quot;&gt;c, C&lt;span style=&quot;font-weight: normal&quot;&gt;&amp;nbsp;&quot;Display only current directory&lt;/span&gt;&lt;/div&gt;&lt;div style=&quot;font-size: 12px&quot;&gt;u, U&lt;span style=&quot;font-weight: normal&quot;&gt;&amp;nbsp;&quot;Display parent directory&lt;/span&gt;&lt;/div&gt;&lt;div style=&quot;font-size: 12px&quot;&gt;p&lt;span style=&quot;font-weight: normal&quot;&gt;&amp;nbsp;&quot;go to parent&lt;/span&gt;&lt;/div&gt;&lt;/h1&gt;" style="text;html=1;spacing=5;padding=5;whiteSpace=wrap;overflow=hidden;rounded=0;fontFamily=monospace;labelBackgroundColor=#ffffff;labelBorderColor=#000000;" parent="1" vertex="1">
          <mxGeometry x="10" y="660" width="630" height="200" as="geometry" />
        </mxCell>
      </root>
    </mxGraphModel>
  </diagram>
</mxfile>
